<svg width="106" height="21" viewBox="0 0 106 21" fill="none" xmlns="http://www.w3.org/2000/svg">
<path d="M14.1741 7.72C14.1741 6.57333 13.6141 6 12.4941 6C11.4007 6 10.4941 6.41333 9.77406 7.24L7.53406 20H0.734063L4.13406 0.759999H10.4541L10.0141 3.12C11.5874 1.17333 13.5741 0.199999 15.9741 0.199999C18.3741 0.199999 19.9341 0.786665 20.6541 1.96C21.1074 2.70667 21.3341 3.56 21.3341 4.52C21.3341 5.48 21.2674 6.37333 21.1341 7.2L20.0541 13.36C20.0274 13.52 20.0141 13.6667 20.0141 13.8C20.0141 14.52 20.4141 14.88 21.2141 14.88C21.8274 14.88 22.3741 14.7467 22.8541 14.48L22.6541 19C21.4007 20.04 19.9741 20.56 18.3741 20.56C14.7474 20.56 12.9341 19.04 12.9341 16C12.9341 15.4667 12.9874 14.8933 13.0941 14.28L14.0541 8.96C14.1341 8.48 14.1741 8.06667 14.1741 7.72ZM37.1603 0.199999C40.0403 0.199999 42.2136 0.826666 43.6803 2.08C44.827 3.06667 45.4003 4.44 45.4003 6.2C45.4003 6.78667 45.3336 7.42667 45.2003 8.12L44.3603 12.8C43.8536 15.6267 42.667 17.6267 40.8003 18.8C38.9603 19.9733 36.4936 20.56 33.4003 20.56C30.307 20.56 28.0403 19.9733 26.6003 18.8C25.5336 17.92 25.0003 16.6 25.0003 14.84C25.0003 14.2267 25.067 13.5467 25.2003 12.8L26.0403 8.12C26.9736 2.84 30.6803 0.199999 37.1603 0.199999ZM38.2403 8.92C38.2936 8.65333 38.3203 8.32 38.3203 7.92C38.3203 7.49333 38.147 7.02667 37.8003 6.52C37.4536 6.01333 36.8403 5.76 35.9603 5.76C35.107 5.76 34.387 6.05333 33.8003 6.64C33.2136 7.2 32.8403 7.96 32.6803 8.92L32.1603 11.92C32.107 12.1867 32.0803 12.5333 32.0803 12.96C32.0803 13.36 32.2536 13.8 32.6003 14.28C32.947 14.76 33.547 15 34.4003 15C35.2803 15 36.0136 14.7067 36.6003 14.12C37.187 13.5067 37.5603 12.7733 37.7203 11.92L38.2403 8.92ZM59.7384 0.199999C62.6184 0.199999 64.7918 0.826666 66.2584 2.08C67.4051 3.06667 67.9784 4.44 67.9784 6.2C67.9784 6.78667 67.9118 7.42667 67.7784 8.12L66.9384 12.8C66.4318 15.6267 65.2451 17.6267 63.3784 18.8C61.5384 19.9733 59.0718 20.56 55.9784 20.56C52.8851 20.56 50.6184 19.9733 49.1784 18.8C48.1118 17.92 47.5784 16.6 47.5784 14.84C47.5784 14.2267 47.6451 13.5467 47.7784 12.8L48.6184 8.12C49.5518 2.84 53.2584 0.199999 59.7384 0.199999ZM60.8184 8.92C60.8718 8.65333 60.8984 8.32 60.8984 7.92C60.8984 7.49333 60.7251 7.02667 60.3784 6.52C60.0318 6.01333 59.4184 5.76 58.5384 5.76C57.6851 5.76 56.9651 6.05333 56.3784 6.64C55.7918 7.2 55.4184 7.96 55.2584 8.92L54.7384 11.92C54.6851 12.1867 54.6584 12.5333 54.6584 12.96C54.6584 13.36 54.8318 13.8 55.1784 14.28C55.5251 14.76 56.1251 15 56.9784 15C57.8584 15 58.5918 14.7067 59.1784 14.12C59.7651 13.5067 60.1384 12.7733 60.2984 11.92L60.8184 8.92ZM103.477 14.88C104.09 14.88 104.637 14.7467 105.117 14.48L104.917 19C103.663 20.04 102.237 20.56 100.637 20.56C97.0099 20.56 95.1966 19.04 95.1966 16C95.1966 15.4667 95.2499 14.8933 95.3566 14.28L96.1966 9.36C96.2766 8.88 96.3166 8.4 96.3166 7.92C96.3166 6.64 95.6099 6 94.1966 6C92.8099 6 91.7166 6.54667 90.9166 7.64L88.7566 20H81.9566L83.8366 9.36C83.9166 8.88 83.9566 8.4 83.9566 7.92C83.9566 6.64 83.2366 6 81.7966 6C80.6499 6 79.6632 6.44 78.8366 7.32L76.5966 20H69.7966L73.1966 0.759999H79.5166L79.0766 3.16C80.6766 1.18667 82.7032 0.199999 85.1566 0.199999C88.6232 0.199999 90.5966 1.34667 91.0766 3.64C92.6766 1.34667 94.8099 0.199999 97.4766 0.199999C100.17 0.199999 101.917 0.799999 102.717 2C103.25 2.82667 103.517 3.73333 103.517 4.72C103.517 5.70667 103.45 6.6 103.317 7.4L102.317 13.36C102.29 13.52 102.277 13.6667 102.277 13.8C102.277 14.52 102.677 14.88 103.477 14.88Z" fill="#0F71EB"/>
</svg>
