<svg width="415" height="260" viewBox="0 0 415 260" fill="none" xmlns="http://www.w3.org/2000/svg">
<path d="M333.841 96.7166C317.985 41.5034 263.2 1.64725 198.894 0.0486542C164.898 -0.796483 129.124 9.1886 103.078 44.13C56.5178 106.592 105.939 149.754 140.394 170.265C157.04 180.194 172.039 192.132 184.957 205.735C208.23 230.192 253.003 260.584 306.325 212.965C344.973 178.45 344.402 133.494 333.841 96.7166Z" fill="#F2F2F2"/>
<path d="M415 109.011C415 123.34 401.882 146.211 385.701 146.211C369.52 146.211 356.403 123.34 356.403 109.011C356.403 102.129 359.489 95.5297 364.984 90.6638C370.479 85.7979 377.931 83.0642 385.701 83.0642C393.472 83.0642 400.924 85.7979 406.419 90.6638C411.913 95.5297 415 102.129 415 109.011V109.011Z" fill="#FF6584"/>
<path d="M386.786 147.134C383.104 148.256 382.223 152.703 383.489 155.964C384.756 159.225 387.438 161.93 388.788 165.164C389.404 166.796 389.846 168.475 390.108 170.179C390.879 174.237 391.652 178.366 391.058 182.447C390.495 186.319 388.724 189.969 386.748 193.458C382.921 200.214 378.266 206.577 372.867 212.431" stroke="#2F2E41" stroke-width="2"/>
<path d="M388.525 148.712C386.643 147.642 384.76 147.642 382.877 148.712V143.71H388.525V148.712Z" fill="#FF6584"/>
<path d="M382.892 146.105C383.77 146.498 384.74 146.702 385.724 146.698C386.708 146.695 387.676 146.484 388.55 146.084" stroke="#2F2E41" stroke-width="2"/>
<path opacity="0.4" d="M397.88 104.634C401.291 104.634 404.057 101.695 404.057 98.0694C404.057 94.4438 401.291 91.5046 397.88 91.5046C394.468 91.5046 391.702 94.4438 391.702 98.0694C391.702 101.695 394.468 104.634 397.88 104.634Z" fill="white"/>
<path d="M38 104.947C38 119.277 51.1175 142.147 67.2987 142.147C83.4799 142.147 96.5974 119.277 96.5974 104.947C96.5974 98.0653 93.5106 91.4658 88.016 86.5999C82.5214 81.734 75.0692 79.0003 67.2987 79.0003C59.5282 79.0003 52.076 81.734 46.5814 86.5999C41.0868 91.4658 38 98.0653 38 104.947V104.947Z" fill="#FF6584"/>
<path d="M66.2136 143.07C69.8955 144.192 70.7769 148.639 69.5105 151.9C68.2441 155.161 65.5618 157.866 64.2122 161.101C63.5964 162.732 63.1543 164.411 62.8918 166.115C62.1208 170.173 61.3477 174.302 61.9417 178.384C62.5053 182.255 64.2765 185.905 66.2525 189.394C70.0794 196.15 74.7343 202.513 80.1333 208.367" stroke="#2F2E41" stroke-width="2"/>
<path d="M64.4747 144.648C66.3574 143.578 68.24 143.578 70.1227 144.648V139.646H64.4747V144.648Z" fill="#FF6584"/>
<path d="M70.1078 142.041C69.2303 142.435 68.2597 142.638 67.276 142.634C66.2924 142.631 65.3237 142.42 64.4498 142.021" stroke="#2F2E41" stroke-width="2"/>
<path opacity="0.4" d="M55.1203 100.57C58.532 100.57 61.2978 97.6311 61.2978 94.0055C61.2978 90.3799 58.532 87.4408 55.1203 87.4408C51.7086 87.4408 48.9429 90.3799 48.9429 94.0055C48.9429 97.6311 51.7086 100.57 55.1203 100.57Z" fill="white"/>
<path d="M393.82 219.048C393.82 233.81 315.431 260 218.734 260C122.037 260 52.8258 206.926 52.8258 192.164C52.8258 177.403 122.037 206.544 218.734 206.544C315.431 206.544 393.82 204.287 393.82 219.048Z" fill="#3F3D56"/>
<path opacity="0.1" d="M393.82 219.048C393.82 233.81 315.431 260 218.734 260C122.037 260 52.8258 206.926 52.8258 192.164C52.8258 177.403 122.037 206.544 218.734 206.544C315.431 206.544 393.82 204.287 393.82 219.048Z" fill="black"/>
<path d="M393.82 218.892C393.82 233.654 315.431 245.62 218.734 245.62C122.037 245.62 52.8258 206.926 52.8258 192.164C52.8258 177.403 122.037 192.164 218.734 192.164C315.431 192.164 393.82 204.131 393.82 218.892Z" fill="#3F3D56"/>
<path d="M191.974 177.294L188.428 197.342C188.428 197.342 170.972 205.554 183.246 205.796C195.519 206.037 253.342 205.796 253.342 205.796C253.342 205.796 264.525 205.796 246.796 197.1L243.25 176.086L191.974 177.294Z" fill="#2F2E41"/>
<path opacity="0.1" d="M180.777 205.578C183.564 203.382 188.428 201.093 188.428 201.093L191.974 181.045L243.25 181.088L246.796 200.852C250.93 202.879 253.491 204.434 254.99 205.626C257.267 205.166 259.755 203.456 246.796 197.1L243.25 176.086L191.974 177.294L188.428 197.342C188.428 197.342 173.76 204.244 180.777 205.578Z" fill="black"/>
<path d="M324.726 37.5622H109.953C105.467 37.5622 101.83 40.7826 101.83 44.7553V172.879C101.83 176.851 105.467 180.072 109.953 180.072H324.726C329.212 180.072 332.848 176.851 332.848 172.879V44.7553C332.848 40.7826 329.212 37.5622 324.726 37.5622Z" fill="#2F2E41"/>
<path d="M325.075 45.1707H109.603V151.932H325.075V45.1707Z" fill="#3F3D56"/>
<path d="M217.339 42.9968C218.092 42.9968 218.703 42.4561 218.703 41.7891C218.703 41.1221 218.092 40.5814 217.339 40.5814C216.586 40.5814 215.975 41.1221 215.975 41.7891C215.975 42.4561 216.586 42.9968 217.339 42.9968Z" fill="#F2F2F2"/>
<path d="M332.848 160.386V172.878C332.848 173.823 332.638 174.759 332.23 175.631C331.822 176.504 331.224 177.297 330.469 177.965C329.715 178.633 328.82 179.163 327.834 179.524C326.849 179.886 325.792 180.072 324.726 180.072H109.953C108.886 180.072 107.83 179.886 106.844 179.524C105.859 179.163 104.963 178.633 104.209 177.965C103.455 177.297 102.856 176.504 102.448 175.631C102.04 174.759 101.83 173.823 101.83 172.878V160.386H332.848Z" fill="#2F2E41"/>
<path d="M277.617 218.839V221.254H130.878V219.322L131.08 218.839L134.696 210.143H274.616L277.617 218.839Z" fill="#2F2E41"/>
<path d="M334.086 216.474C333.819 217.486 332.81 218.554 330.53 219.564C322.347 223.187 305.71 218.597 305.71 218.597C305.71 218.597 292.891 216.665 292.891 211.593C293.25 211.374 293.626 211.177 294.014 211.001C297.454 209.389 308.861 205.412 329.085 211.169C330.575 211.584 331.906 212.356 332.93 213.4C333.749 214.25 334.392 215.328 334.086 216.474Z" fill="#2F2E41"/>
<path opacity="0.1" d="M334.086 216.474C324.071 219.873 315.144 220.126 305.982 214.491C301.362 211.651 297.165 210.948 294.014 211.001C297.454 209.389 308.861 205.412 329.085 211.169C330.575 211.584 331.906 212.356 332.93 213.4C333.749 214.25 334.392 215.328 334.086 216.474Z" fill="black"/>
<path d="M321.529 214.491C323.487 214.491 325.075 214.059 325.075 213.525C325.075 212.991 323.487 212.559 321.529 212.559C319.571 212.559 317.983 212.991 317.983 213.525C317.983 214.059 319.571 214.491 321.529 214.491Z" fill="#F2F2F2"/>
<path d="M217.339 174.878C220.201 174.878 222.521 172.824 222.521 170.289C222.521 167.755 220.201 165.7 217.339 165.7C214.477 165.7 212.157 167.755 212.157 170.289C212.157 172.824 214.477 174.878 217.339 174.878Z" fill="#F2F2F2"/>
<path opacity="0.1" d="M277.617 218.839V221.254H130.878V219.322L131.08 218.839H277.617Z" fill="black"/>
<path d="M345.486 95.2407C341.804 96.3634 340.922 100.81 342.189 104.071C343.455 107.332 346.138 110.037 347.487 113.272C348.103 114.903 348.545 116.582 348.808 118.286C349.579 122.344 350.352 126.473 349.758 130.555C349.194 134.426 347.423 138.076 345.447 141.566C341.62 148.322 336.965 154.684 331.566 160.538" stroke="#2F2E41" stroke-width="2"/>
<path d="M373.699 57.1178C373.699 71.4476 360.582 94.3181 344.401 94.3181C328.22 94.3181 315.102 71.4476 315.102 57.1178C315.102 50.2364 318.189 43.6368 323.683 38.7709C329.178 33.905 336.63 31.1714 344.401 31.1714C352.171 31.1714 359.624 33.905 365.118 38.7709C370.613 43.6368 373.699 50.2364 373.699 57.1178V57.1178Z" fill="#0F71EB"/>
<path d="M347.225 96.8189C345.342 95.749 343.459 95.749 341.577 96.8189V91.8172H347.225V96.8189Z" fill="#0F71EB"/>
<path d="M341.592 94.2122C342.469 94.6057 343.44 94.809 344.423 94.8054C345.407 94.8018 346.376 94.5915 347.25 94.1916" stroke="#2F2E41" stroke-width="2"/>
<path opacity="0.4" d="M356.579 52.7413C359.991 52.7413 362.757 49.8022 362.757 46.1766C362.757 42.551 359.991 39.6118 356.579 39.6118C353.167 39.6118 350.402 42.551 350.402 46.1766C350.402 49.8022 353.167 52.7413 356.579 52.7413Z" fill="white"/>
<path d="M251.071 90.2035V117.258L242.995 131.688V131.69L242.739 132.145L221.358 130.895L213.139 130.413L194.063 129.297V96.9349L213.139 97.4113L221.669 97.6248L243.251 98.1647L251.071 90.2035Z" fill="#0F71EB"/>
<path opacity="0.1" d="M251.071 91.7997V117.258L249.098 120.783V120.785L247.074 124.398V124.399L242.995 131.688L243.451 104.633L243.543 99.1756L247.422 95.3749V95.3737L249.114 93.7169L251.071 91.7997Z" fill="black"/>
<path d="M252.167 83.0191V92.469L251.071 94.0157L249.112 96.7795L247.377 99.2275L243.543 104.637L243.451 104.633L192.382 102.307V92.9866L192.511 92.8638L198.608 87.0189L200.815 84.9039L204.807 81.0772L252.167 83.0191Z" fill="#0F71EB"/>
<path opacity="0.1" d="M243.543 95.3168V104.637L192.382 102.307V92.9866L192.511 92.8638L243.543 95.3168Z" fill="black"/>
<path opacity="0.15" d="M252.167 83.0191V92.4689L243.543 104.637V95.3168L252.167 83.0191Z" fill="black"/>
<path d="M249.118 87.3672L249.114 93.7169L249.112 96.7795L249.098 120.783V120.785L247.074 124.398L247.377 99.2275L247.422 95.3749V95.3737L247.491 89.687L198.608 87.0189L200.815 84.9038L249.118 87.3672Z" fill="#2F2E41"/>
<path d="M225.125 87.6792L221.7 94.2667L221.669 97.6248L221.358 130.895L213.139 130.413V93.8282L217.524 87.6792H225.125Z" fill="#2F2E41"/>
<path d="M213.845 88.1225C211.866 88.7056 209.739 88.7717 207.719 88.313C207.326 88.2455 206.957 88.094 206.645 87.8717C206.309 87.543 206.079 87.1401 205.98 86.7055C205.623 85.8075 205.425 84.8658 205.393 83.9141C205.418 82.9638 205.828 81.9721 206.704 81.4221C206.882 81.3269 207.048 81.2159 207.201 81.091C207.384 80.8869 207.515 80.6507 207.587 80.398C208.186 78.816 209.346 77.1455 211.209 76.8923C212.927 76.6587 214.491 77.7213 215.814 78.719L218.72 80.9087C219.042 80.1412 219.619 79.4781 220.375 79.0063C221.13 78.5344 222.029 78.276 222.954 78.2648C223.878 78.2537 224.785 78.4904 225.555 78.9438C226.325 79.3972 226.922 80.0462 227.268 80.8055C229.028 79.0491 231.247 77.7007 233.731 76.878C234.282 76.6963 234.928 76.5484 235.43 76.8189C235.74 77.0215 235.975 77.3009 236.106 77.6219C236.897 79.155 237.326 80.8151 237.366 82.5003C237.569 82.4387 237.789 82.439 237.992 82.5009C238.195 82.5629 238.369 82.6832 238.486 82.8425C238.711 83.1673 238.839 83.5373 238.859 83.9179C238.936 84.506 238.975 85.0976 238.975 85.6897C238.974 86.314 238.909 86.9884 238.449 87.462C237.856 88.0739 236.831 88.1386 235.92 88.1578C236.358 88.5025 236.144 89.1967 235.659 89.4885C235.174 89.7802 234.547 89.7856 233.96 89.7805C231.7 89.761 229.295 89.7041 227.415 88.5928C226.672 88.1541 226.05 87.5697 225.306 87.1334C223.482 86.0642 221.191 86.0131 219.079 86.1016C217.173 86.1815 215.66 87.5843 213.845 88.1225Z" fill="#2F2E41"/>
<path d="M213.431 87.6792C213.431 87.6792 194.575 90.0093 191.943 100.106L195.89 99.5886L198.667 103.99C198.667 103.99 201.591 94.1517 210.215 91.8216C218.839 89.4915 221.909 89.1031 221.909 89.1031C221.909 89.1031 227.902 90.3976 233.311 105.802L236.38 102.048L241.789 103.084C241.789 103.084 237.842 91.0449 227.171 87.6792L213.431 87.6792Z" fill="#2F2E41"/>
<g filter="url(#filter0_d)">
<path d="M1 45H142V77H1V45Z" fill="#0F71EB"/>
</g>
<g filter="url(#filter1_d)">
<path d="M19 207H160V239H19V207Z" fill="#0F71EB"/>
</g>
<g filter="url(#filter2_d)">
<rect x="266" y="98" width="141" height="32" fill="#0F71EB"/>
</g>
<g filter="url(#filter3_d)">
<rect x="54" y="130" width="141" height="32" fill="#0F71EB"/>
</g>
<g filter="url(#filter4_d)">
<rect x="259" y="175" width="141" height="32" fill="#0F71EB"/>
</g>
<path d="M23.2016 55.624H18.1136V55.132H23.2016V55.624ZM23.2016 56.992H18.1136V56.488H23.2016V56.992ZM24.6296 54.22H16.7456V57.904H24.6296V54.22ZM23.9456 61.012C23.7296 61.444 23.4536 61.84 23.1296 62.188C22.8056 61.84 22.5296 61.444 22.3256 61.012H23.9456ZM17.5856 62.44H19.1456V62.908C18.6176 62.956 18.0896 62.992 17.5856 63.028V62.44ZM17.5856 60.952H19.1456V61.456H17.5856V60.952ZM19.1456 59.476V59.956H17.5856V59.476H19.1456ZM24.7856 59.872L24.5456 59.92H20.8136V61.012H21.9176L21.1256 61.228C21.4136 61.888 21.7856 62.488 22.2176 63.004C21.7136 63.376 21.1256 63.664 20.5136 63.868V59.476H26.0096V58.348H15.3416V59.476H16.2776V63.124C15.9056 63.16 15.5456 63.172 15.2336 63.196L15.3416 64.42C16.3976 64.324 17.7656 64.204 19.1456 64.072V65.044H20.5136V64.072C20.7536 64.36 21.0176 64.756 21.1496 65.032C21.8936 64.756 22.5776 64.384 23.1896 63.916C23.8256 64.408 24.5696 64.78 25.4216 65.032C25.6136 64.696 25.9856 64.18 26.2616 63.916C25.4696 63.724 24.7496 63.424 24.1496 63.028C24.8216 62.272 25.3376 61.336 25.6616 60.208L24.7856 59.872ZM34.7216 58.504V62.98H36.1376V58.504H38.1416V57.184H32.9096V55.984C34.5416 55.768 36.3296 55.432 37.7216 54.94L36.5456 53.848C35.6216 54.22 34.1696 54.556 32.7536 54.796L31.5296 54.568V57.304C31.5296 58.696 31.3856 60.496 30.1616 61.804C30.4976 61.984 31.0016 62.476 31.1936 62.788C32.3456 61.6 32.7416 59.92 32.8616 58.504H34.7216ZM30.3176 55.924C29.9096 55.36 29.0336 54.616 28.3136 54.112L27.2576 54.976C27.9656 55.504 28.8176 56.296 29.1896 56.872L30.3176 55.924ZM30.0176 58.492H27.2456V59.8H28.6256V62.332C28.0976 62.74 27.4976 63.136 26.9816 63.436L27.6776 64.924C28.3376 64.42 28.8656 63.952 29.3936 63.484C30.1736 64.42 31.1576 64.756 32.6336 64.816C34.0616 64.876 36.4736 64.852 37.9136 64.78C37.9856 64.372 38.2016 63.676 38.3576 63.34C36.7616 63.46 34.0616 63.496 32.6576 63.436C31.4096 63.388 30.5096 63.064 30.0176 62.26V58.492ZM45.4376 63.136V58.96H49.3496V57.544H45.4376V53.86H43.9016V57.544H40.0496V58.96H43.9016V63.136H39.2696V64.54H50.1416V63.136H45.4376ZM54.0176 62.68V59.992H59.3456V62.68H54.0176ZM59.3456 55.996V58.576H54.0176V55.996H59.3456ZM52.5416 54.556V64.9H54.0176V64.12H59.3456V64.876H60.8816V54.556H52.5416ZM68.3456 54.34L66.6896 54.172C66.6656 54.796 66.5336 55.516 66.3656 56.176C65.9936 56.212 65.6336 56.224 65.2736 56.224C64.8296 56.224 64.1936 56.2 63.6776 56.14L63.7856 57.532C64.3016 57.568 64.7936 57.58 65.2856 57.58C65.4896 57.58 65.6936 57.58 65.9096 57.568C65.3816 58.864 64.4096 60.628 63.4616 61.804L64.9136 62.548C65.8856 61.192 66.9056 59.092 67.4816 57.412C68.2856 57.292 69.0296 57.136 69.5816 56.992L69.5336 55.6C69.0656 55.744 68.5016 55.876 67.9136 55.984C68.0936 55.336 68.2496 54.724 68.3456 54.34ZM67.7216 62.644C67.7216 62.224 68.1656 61.912 68.8616 61.912C69.1976 61.912 69.5216 61.96 69.8336 62.032C69.8336 62.128 69.8336 62.2 69.8336 62.272C69.8336 62.932 69.5816 63.388 68.7536 63.388C68.0936 63.388 67.7216 63.088 67.7216 62.644ZM71.1536 58.072H69.6536C69.6776 58.804 69.7376 59.872 69.7856 60.76C69.5096 60.736 69.2456 60.712 68.9576 60.712C67.2896 60.712 66.3056 61.612 66.3056 62.788C66.3056 64.108 67.4816 64.768 68.9696 64.768C70.6736 64.768 71.2856 63.904 71.2856 62.788C71.2856 62.752 71.2856 62.704 71.2856 62.668C71.9456 63.064 72.4856 63.568 72.9056 63.952L73.7096 62.668C73.0976 62.116 72.2576 61.516 71.2256 61.132C71.2016 60.532 71.1656 59.956 71.1536 59.608C71.1416 59.08 71.1176 58.576 71.1536 58.072ZM73.2176 58.708L74.0696 57.448C73.4576 57.004 71.9696 56.188 71.1056 55.816L70.3376 57.004C71.1536 57.376 72.5216 58.156 73.2176 58.708ZM80.0576 55.612V57.148C81.5696 57.292 83.7416 57.28 85.2176 57.148V55.6C83.9216 55.756 81.5336 55.816 80.0576 55.612ZM81.0176 60.736L79.6376 60.604C79.5056 61.216 79.4336 61.696 79.4336 62.164C79.4336 63.4 80.4296 64.132 82.4936 64.132C83.8496 64.132 84.8096 64.048 85.5896 63.904L85.5656 62.284C84.5096 62.5 83.6216 62.596 82.5536 62.596C81.3296 62.596 80.8736 62.272 80.8736 61.744C80.8736 61.42 80.9216 61.132 81.0176 60.736ZM78.2096 54.808L76.5296 54.664C76.5176 55.048 76.4456 55.504 76.4096 55.84C76.2776 56.764 75.9056 58.792 75.9056 60.592C75.9056 62.224 76.1336 63.688 76.3736 64.516L77.7656 64.42C77.7536 64.252 77.7416 64.06 77.7416 63.928C77.7416 63.808 77.7656 63.544 77.8016 63.364C77.9336 62.728 78.3296 61.42 78.6656 60.424L77.9216 59.836C77.7536 60.232 77.5616 60.652 77.3816 61.06C77.3456 60.82 77.3336 60.508 77.3336 60.28C77.3336 59.08 77.7536 56.68 77.9096 55.876C77.9576 55.66 78.1136 55.06 78.2096 54.808ZM91.1336 54.484L89.2016 54.46C89.3096 54.94 89.3576 55.516 89.3576 56.08C89.3576 57.112 89.2376 60.268 89.2376 61.876C89.2376 63.928 90.5096 64.792 92.4776 64.792C95.2136 64.792 96.9176 63.184 97.6856 62.032L96.5936 60.712C95.7296 62.02 94.4696 63.16 92.4896 63.16C91.5536 63.16 90.8336 62.764 90.8336 61.552C90.8336 60.064 90.9296 57.376 90.9776 56.08C91.0016 55.6 91.0616 54.988 91.1336 54.484ZM99.1704 55.744L99.3264 57.388C100.718 57.088 103.166 56.824 104.294 56.704C103.49 57.316 102.518 58.684 102.518 60.412C102.518 63.004 104.894 64.36 107.402 64.528L107.966 62.884C105.938 62.776 104.09 62.056 104.09 60.088C104.09 58.66 105.17 57.1 106.622 56.716C107.258 56.572 108.29 56.572 108.938 56.56L108.926 55.024C108.086 55.048 106.766 55.132 105.53 55.228C103.334 55.42 101.354 55.6 100.358 55.684C100.118 55.708 99.6504 55.732 99.1704 55.744ZM114.998 62.584C114.998 62.284 115.286 62.008 115.742 62.008C116.39 62.008 116.834 62.512 116.906 63.292C116.69 63.316 116.462 63.328 116.21 63.328C115.49 63.328 114.998 63.028 114.998 62.584ZM112.958 54.856L113.006 56.416C113.282 56.38 113.666 56.344 113.99 56.32C114.626 56.284 116.282 56.212 116.894 56.2C116.306 56.716 115.058 57.724 114.386 58.276C113.678 58.864 112.226 60.088 111.374 60.772L112.466 61.9C113.75 60.436 114.95 59.464 116.786 59.464C118.202 59.464 119.282 60.196 119.282 61.276C119.282 62.008 118.946 62.56 118.286 62.908C118.118 61.768 117.218 60.856 115.73 60.856C114.458 60.856 113.582 61.756 113.582 62.728C113.582 63.928 114.842 64.696 116.51 64.696C119.414 64.696 120.854 63.196 120.854 61.3C120.854 59.548 119.306 58.276 117.266 58.276C116.882 58.276 116.522 58.312 116.126 58.408C116.882 57.808 118.142 56.752 118.79 56.296C119.066 56.092 119.354 55.924 119.63 55.744L118.85 54.676C118.706 54.724 118.43 54.76 117.938 54.808C117.254 54.868 114.686 54.916 114.05 54.916C113.714 54.916 113.294 54.904 112.958 54.856ZM127.406 60.916H128.954C128.774 59.248 131.39 59.044 131.39 57.28C131.39 55.684 130.118 54.88 128.378 54.88C127.094 54.88 126.038 55.456 125.282 56.344L126.266 57.256C126.854 56.632 127.442 56.308 128.186 56.308C129.122 56.308 129.698 56.716 129.698 57.436C129.698 58.6 127.154 59.032 127.406 60.916ZM128.186 64.108C128.798 64.108 129.242 63.676 129.242 63.052C129.242 62.416 128.798 61.984 128.186 61.984C127.586 61.984 127.13 62.416 127.13 63.052C127.13 63.676 127.574 64.108 128.186 64.108Z" fill="white"/>
<path d="M76.2588 148.04C75.8508 149.096 75.1428 150.392 74.3988 151.376L76.0788 152.084C76.7028 151.184 77.4108 149.816 77.8428 148.652C78.2628 147.536 78.6948 145.892 78.8628 145.04C78.9108 144.776 79.0548 144.188 79.1508 143.84L77.3988 143.48C77.2548 145.004 76.7988 146.708 76.2588 148.04ZM82.1868 147.788C82.6668 149.084 83.0988 150.608 83.4348 152.024L85.2108 151.448C84.8748 150.26 84.2388 148.352 83.8188 147.26C83.3628 146.108 82.5348 144.26 82.0428 143.324L80.4468 143.84C80.9508 144.764 81.7308 146.528 82.1868 147.788ZM97.2348 144.44L96.0348 143.456C95.7828 143.54 95.3748 143.588 94.9188 143.588H88.2588C87.8508 143.588 87.1908 143.528 86.8788 143.48V145.16C87.1308 145.136 87.7788 145.076 88.2588 145.076H94.6068C94.0428 146.06 92.9148 147.452 91.5588 148.532C90.8028 147.872 90.0108 147.224 89.5308 146.864L88.2588 147.884C88.9788 148.4 90.2028 149.48 90.8988 150.188C91.6788 150.98 92.6868 152.108 93.1908 152.78L94.5948 151.664C94.1268 151.1 93.4188 150.32 92.7348 149.636C94.4268 148.268 95.9628 146.348 96.8268 144.944C96.9228 144.788 97.0668 144.632 97.2348 144.44ZM99.5148 146.924L100.139 148.484C101.159 148.052 103.559 147.056 104.951 147.056C105.995 147.056 106.667 147.68 106.667 148.58C106.667 150.212 104.651 150.944 101.903 151.016L102.539 152.492C106.355 152.252 108.263 150.776 108.263 148.604C108.263 146.792 106.991 145.664 105.095 145.664C103.643 145.664 101.603 146.348 100.787 146.6C100.427 146.708 99.8748 146.852 99.5148 146.924ZM110.053 143.744L110.209 145.388C111.601 145.088 114.049 144.824 115.177 144.704C114.373 145.316 113.401 146.684 113.401 148.412C113.401 151.004 115.777 152.36 118.285 152.528L118.849 150.884C116.821 150.776 114.973 150.056 114.973 148.088C114.973 146.66 116.053 145.1 117.505 144.716C118.141 144.572 119.173 144.572 119.821 144.56L119.809 143.024C118.969 143.048 117.649 143.132 116.413 143.228C114.217 143.42 112.237 143.6 111.241 143.684C111.001 143.708 110.533 143.732 110.053 143.744ZM125.881 150.584C125.881 150.284 126.169 150.008 126.625 150.008C127.273 150.008 127.717 150.512 127.789 151.292C127.573 151.316 127.345 151.328 127.093 151.328C126.373 151.328 125.881 151.028 125.881 150.584ZM123.841 142.856L123.889 144.416C124.165 144.38 124.549 144.344 124.873 144.32C125.509 144.284 127.165 144.212 127.777 144.2C127.189 144.716 125.941 145.724 125.269 146.276C124.561 146.864 123.109 148.088 122.257 148.772L123.349 149.9C124.633 148.436 125.833 147.464 127.669 147.464C129.085 147.464 130.165 148.196 130.165 149.276C130.165 150.008 129.829 150.56 129.169 150.908C129.001 149.768 128.101 148.856 126.613 148.856C125.341 148.856 124.465 149.756 124.465 150.728C124.465 151.928 125.725 152.696 127.393 152.696C130.297 152.696 131.737 151.196 131.737 149.3C131.737 147.548 130.189 146.276 128.149 146.276C127.765 146.276 127.405 146.312 127.009 146.408C127.765 145.808 129.025 144.752 129.673 144.296C129.949 144.092 130.237 143.924 130.513 143.744L129.733 142.676C129.589 142.724 129.313 142.76 128.821 142.808C128.137 142.868 125.569 142.916 124.933 142.916C124.597 142.916 124.177 142.904 123.841 142.856ZM142.441 143.408H139.297V142.988H142.441V143.408ZM142.441 144.608H139.297V144.176H142.441V144.608ZM143.845 142.172H137.953V145.424H143.845V142.172ZM143.113 147.488H142.273V146.696H143.113V147.488ZM141.205 147.488H140.389V146.696H141.205V147.488ZM139.321 147.488H138.529V146.696H139.321V147.488ZM144.397 145.832H137.317V148.352H144.397V145.832ZM137.281 143.528C136.777 143.072 135.757 142.46 135.013 142.076L134.173 143.06C134.929 143.492 135.925 144.152 136.381 144.62L137.281 143.528ZM136.609 146.672C136.117 146.24 135.133 145.616 134.401 145.232L133.561 146.204C134.293 146.636 135.265 147.32 135.697 147.788L136.609 146.672ZM135.913 148.244C135.253 149.588 134.401 151.028 133.813 151.904L135.049 152.84C135.697 151.712 136.405 150.392 136.981 149.18L135.913 148.244ZM142.057 149.876C141.697 150.212 141.253 150.488 140.761 150.728C140.269 150.476 139.825 150.2 139.465 149.876H142.057ZM143.329 148.712L143.077 148.76H137.101V149.876H137.809C138.229 150.428 138.721 150.896 139.297 151.304C138.433 151.568 137.497 151.736 136.537 151.844C136.777 152.144 137.053 152.708 137.173 153.056C138.421 152.864 139.633 152.576 140.701 152.12C141.673 152.564 142.777 152.864 144.013 153.056C144.193 152.696 144.565 152.12 144.865 151.832C143.917 151.724 143.029 151.568 142.237 151.316C143.077 150.752 143.761 150.056 144.229 149.18L143.329 148.712ZM154.837 150.992H147.589V144.68H146.197V153.044H147.589V152.336H154.837V153.032H156.217V144.68H154.837V150.992ZM152.821 147.02H151.777V146.012H152.821V147.02ZM152.821 149.12H151.777V148.1H152.821V149.12ZM149.509 148.1H150.553V149.12H149.509V148.1ZM149.509 146.012H150.553V147.02H149.509V146.012ZM145.837 142.556V143.888H150.445V144.848H148.345V150.284H154.057V144.848H151.873V143.888H156.577V142.556H145.837ZM162.889 150.44C162.889 149.984 163.345 149.696 164.029 149.696C164.353 149.696 164.677 149.744 164.989 149.828C164.989 149.912 164.989 149.984 164.989 150.044C164.989 150.752 164.737 151.136 164.005 151.136C163.369 151.136 162.889 150.932 162.889 150.44ZM166.453 142.604H164.737C164.785 142.844 164.821 143.216 164.821 143.396C164.821 143.648 164.833 144.14 164.833 144.728C164.557 144.74 164.269 144.74 163.993 144.74C163.273 144.74 162.577 144.704 161.893 144.632V146.06C162.601 146.108 163.285 146.132 163.993 146.132C164.269 146.132 164.557 146.132 164.845 146.12C164.857 146.972 164.905 147.848 164.929 148.592C164.689 148.556 164.425 148.544 164.149 148.544C162.517 148.544 161.485 149.384 161.485 150.596C161.485 151.856 162.517 152.552 164.173 152.552C165.793 152.552 166.441 151.736 166.513 150.584C166.993 150.908 167.473 151.328 167.977 151.796L168.805 150.536C168.229 150.008 167.473 149.396 166.477 148.988C166.429 148.172 166.369 147.212 166.345 146.048C167.005 146 167.629 145.928 168.205 145.844V144.344C167.629 144.464 167.005 144.56 166.345 144.62C166.357 144.092 166.369 143.648 166.381 143.384C166.393 143.12 166.417 142.832 166.453 142.604ZM160.597 142.736L158.941 142.592C158.929 142.976 158.869 143.432 158.821 143.768C158.689 144.692 158.329 146.96 158.329 148.772C158.329 150.404 158.557 151.772 158.809 152.612L160.165 152.504C160.153 152.336 160.141 152.132 160.141 152.012C160.141 151.88 160.165 151.616 160.201 151.448C160.345 150.8 160.729 149.576 161.065 148.592L160.333 147.992C160.153 148.4 159.949 148.808 159.793 149.228C159.757 148.988 159.745 148.688 159.745 148.448C159.745 147.248 160.141 144.608 160.321 143.804C160.357 143.588 160.501 142.976 160.597 142.736ZM174.289 148.916H175.837C175.657 147.248 178.273 147.044 178.273 145.28C178.273 143.684 177.001 142.88 175.261 142.88C173.977 142.88 172.921 143.456 172.165 144.344L173.149 145.256C173.737 144.632 174.325 144.308 175.069 144.308C176.005 144.308 176.581 144.716 176.581 145.436C176.581 146.6 174.037 147.032 174.289 148.916ZM175.069 152.108C175.681 152.108 176.125 151.676 176.125 151.052C176.125 150.416 175.681 149.984 175.069 149.984C174.469 149.984 174.013 150.416 174.013 151.052C174.013 151.676 174.457 152.108 175.069 152.108Z" fill="white"/>
<path d="M42.8816 223.996L41.9696 224.236V222.412H42.8936V221.104H41.9696V218.848H40.6016V221.104H39.2096V222.412H40.6016V224.572C39.9896 224.716 39.4256 224.848 38.9696 224.944L39.2696 226.324L40.6016 225.964V228.424C40.6016 228.604 40.5416 228.652 40.3976 228.652C40.2416 228.664 39.7496 228.664 39.2816 228.64C39.4616 229.036 39.6416 229.648 39.6776 230.032C40.5056 230.032 41.0696 229.984 41.4656 229.744C41.8496 229.528 41.9696 229.144 41.9696 228.436V225.58C42.3296 225.472 42.6896 225.376 43.0376 225.268L42.8816 223.996ZM45.1376 226.96H46.5296V228.148H45.1376V226.96ZM46.5296 223.396H45.1376V222.28H46.5296V223.396ZM46.5296 225.76H45.1376V224.596H46.5296V225.76ZM50.2496 228.148H47.8496V226.96H49.7216V225.76H47.8496V224.596H49.7216V223.396H47.8496V222.28H50.0336V221.02H47.9936C48.2696 220.444 48.5456 219.796 48.8096 219.172L47.2976 218.86C47.1296 219.508 46.8536 220.324 46.5776 221.02H45.2576C45.5216 220.408 45.7496 219.784 45.9296 219.148L44.5616 218.824C44.1176 220.456 43.3256 222.064 42.3416 223.06C42.6176 223.36 43.0616 224.008 43.2416 224.32C43.4216 224.128 43.6016 223.912 43.7696 223.684V230.032H45.1376V229.444H50.2496V228.148ZM55.1336 219.484L53.2016 219.46C53.3096 219.94 53.3576 220.516 53.3576 221.08C53.3576 222.112 53.2376 225.268 53.2376 226.876C53.2376 228.928 54.5096 229.792 56.4776 229.792C59.2136 229.792 60.9176 228.184 61.6856 227.032L60.5936 225.712C59.7296 227.02 58.4696 228.16 56.4896 228.16C55.5536 228.16 54.8336 227.764 54.8336 226.552C54.8336 225.064 54.9296 222.376 54.9776 221.08C55.0016 220.6 55.0616 219.988 55.1336 219.484ZM68.0576 220.612V222.148C69.5696 222.292 71.7416 222.28 73.2176 222.148V220.6C71.9216 220.756 69.5336 220.816 68.0576 220.612ZM69.0176 225.736L67.6376 225.604C67.5056 226.216 67.4336 226.696 67.4336 227.164C67.4336 228.4 68.4296 229.132 70.4936 229.132C71.8496 229.132 72.8096 229.048 73.5896 228.904L73.5656 227.284C72.5096 227.5 71.6216 227.596 70.5536 227.596C69.3296 227.596 68.8736 227.272 68.8736 226.744C68.8736 226.42 68.9216 226.132 69.0176 225.736ZM66.2096 219.808L64.5296 219.664C64.5176 220.048 64.4456 220.504 64.4096 220.84C64.2776 221.764 63.9056 223.792 63.9056 225.592C63.9056 227.224 64.1336 228.688 64.3736 229.516L65.7656 229.42C65.7536 229.252 65.7416 229.06 65.7416 228.928C65.7416 228.808 65.7656 228.544 65.8016 228.364C65.9336 227.728 66.3296 226.42 66.6656 225.424L65.9216 224.836C65.7536 225.232 65.5616 225.652 65.3816 226.06C65.3456 225.82 65.3336 225.508 65.3336 225.28C65.3336 224.08 65.7536 221.68 65.9096 220.876C65.9576 220.66 66.1136 220.06 66.2096 219.808ZM75.3296 222.424L76.0136 224.104C77.2616 223.564 80.1056 222.364 81.8696 222.364C83.3096 222.364 84.0896 223.228 84.0896 224.356C84.0896 226.444 81.5456 227.38 78.2936 227.464L78.9896 229.06C83.2136 228.844 85.8056 227.104 85.8056 224.38C85.8056 222.16 84.1016 220.912 81.9296 220.912C80.1776 220.912 77.7296 221.776 76.8056 222.064C76.3736 222.184 75.7736 222.352 75.3296 222.424ZM89.8016 220.42L87.9536 220.396C88.0256 220.768 88.0496 221.284 88.0496 221.62C88.0496 222.352 88.0616 223.756 88.1816 224.86C88.5176 228.076 89.6576 229.264 90.9776 229.264C91.9376 229.264 92.6936 228.532 93.4856 226.444L92.2856 224.98C92.0576 225.94 91.5776 227.344 91.0136 227.344C90.2576 227.344 89.8976 226.156 89.7296 224.428C89.6576 223.564 89.6456 222.664 89.6576 221.884C89.6576 221.548 89.7176 220.852 89.8016 220.42ZM95.8016 220.696L94.2776 221.188C95.5856 222.676 96.2216 225.592 96.4136 227.524L97.9856 226.912C97.8536 225.076 96.9416 222.076 95.8016 220.696ZM99.1704 220.744L99.3264 222.388C100.718 222.088 103.166 221.824 104.294 221.704C103.49 222.316 102.518 223.684 102.518 225.412C102.518 228.004 104.894 229.36 107.402 229.528L107.966 227.884C105.938 227.776 104.09 227.056 104.09 225.088C104.09 223.66 105.17 222.1 106.622 221.716C107.258 221.572 108.29 221.572 108.938 221.56L108.926 220.024C108.086 220.048 106.766 220.132 105.53 220.228C103.334 220.42 101.354 220.6 100.358 220.684C100.118 220.708 99.6504 220.732 99.1704 220.744ZM114.95 219.208H111.326V220.288H114.95V219.208ZM115.406 220.816H110.714V221.944H115.406V220.816ZM113.726 226.912V228.292H112.454V226.912H113.726ZM114.962 225.784H111.242V229.876H112.454V229.408H114.962V225.784ZM111.278 225.196H114.974V224.128H111.278V225.196ZM111.278 223.576H114.974V222.484H111.278V223.576ZM121.946 226H119.33V224.788H121.502V223.528H119.33V222.388H121.754V221.092H120.458C120.758 220.588 121.118 219.892 121.454 219.208L120.062 218.812C119.882 219.448 119.522 220.336 119.234 220.912L119.774 221.092H117.434L118.01 220.864C117.878 220.312 117.53 219.508 117.146 218.884L115.994 219.316C116.294 219.856 116.582 220.552 116.726 221.092H115.634V222.388H117.926V223.528H115.874V224.788H117.926V226H115.25V227.296H117.926V230.044H119.33V227.296H121.946V226ZM126.77 219.484L124.838 219.46C124.946 219.94 124.994 220.516 124.994 221.08C124.994 222.112 124.874 225.268 124.874 226.876C124.874 228.928 126.146 229.792 128.114 229.792C130.85 229.792 132.554 228.184 133.322 227.032L132.23 225.712C131.366 227.02 130.106 228.16 128.126 228.16C127.19 228.16 126.47 227.764 126.47 226.552C126.47 225.064 126.566 222.376 126.614 221.08C126.638 220.6 126.698 219.988 126.77 219.484ZM143.126 220.348L141.722 219.112C141.53 219.4 141.146 219.784 140.798 220.132C139.994 220.912 138.35 222.244 137.402 223.012C136.202 224.02 136.106 224.656 137.306 225.676C138.398 226.612 140.162 228.112 140.894 228.868C141.254 229.228 141.602 229.612 141.938 229.984L143.342 228.7C142.118 227.512 139.838 225.712 138.938 224.956C138.29 224.392 138.278 224.26 138.914 223.708C139.718 223.024 141.302 221.8 142.082 221.176C142.358 220.948 142.754 220.636 143.126 220.348Z" fill="white"/>
<path d="M293.874 118.112V116.864H299.574V118.112H293.874ZM299.574 114.308V115.544H293.874V114.308H299.574ZM299.574 111.752V112.988H293.874V111.752H299.574ZM296.982 110.384C297.174 109.952 297.366 109.484 297.546 109.004L295.818 108.812C295.758 109.292 295.626 109.868 295.494 110.384H292.422V120.032H293.874V119.432H299.574V120.02H301.098V110.384H296.982ZM307.434 118.4C306.15 118.4 305.934 118.292 305.934 117.656V114.764H311.286V115.448H312.81V109.52H304.302V110.984H311.286V113.36H304.446V117.68C304.446 119.396 305.178 119.828 307.422 119.828H311.31C313.458 119.828 313.986 119.204 314.25 116.912C313.83 116.84 313.182 116.588 312.798 116.372C312.642 118.1 312.474 118.4 311.274 118.4H307.434ZM315.534 115.856C315.438 116.864 315.246 117.932 314.898 118.64C315.21 118.748 315.738 119 315.99 119.156C316.338 118.388 316.59 117.188 316.71 116.06L315.534 115.856ZM318.138 116.072C318.414 116.78 318.726 117.704 318.834 118.304L319.89 117.92C319.758 117.32 319.446 116.444 319.146 115.76L318.138 116.072ZM317.886 113.108C318.03 113.372 318.174 113.672 318.306 113.972L317.154 114.02C317.91 113.048 318.738 111.836 319.398 110.792L318.234 110.252C317.958 110.84 317.574 111.524 317.166 112.196C317.046 112.052 316.914 111.884 316.758 111.716C317.19 111.044 317.67 110.12 318.102 109.304L316.866 108.848C316.662 109.484 316.326 110.276 315.99 110.936C315.894 110.852 315.798 110.768 315.714 110.696L315.03 111.668C315.522 112.148 316.098 112.784 316.446 113.3C316.254 113.576 316.062 113.84 315.882 114.068L315.018 114.104L315.138 115.34L316.878 115.232V120.056H318.114V115.148L318.726 115.1C318.798 115.328 318.846 115.532 318.882 115.712L319.89 115.256C319.758 114.572 319.29 113.528 318.834 112.712L317.886 113.108ZM324.39 116.216V118.256H321.606V116.216H324.39ZM320.298 120.02H321.606V119.516H324.39V119.972H325.77V114.956H320.298V120.02ZM319.878 109.4V110.708H321.498C321.318 111.908 320.874 112.916 319.386 113.564C319.686 113.804 320.07 114.308 320.226 114.632C322.074 113.756 322.662 112.376 322.902 110.708H324.654C324.594 112.148 324.522 112.748 324.378 112.928C324.282 113.024 324.162 113.048 323.994 113.048C323.766 113.048 323.286 113.048 322.782 113C323.01 113.36 323.166 113.9 323.19 114.32C323.766 114.332 324.33 114.332 324.654 114.284C325.026 114.236 325.29 114.128 325.542 113.816C325.842 113.444 325.926 112.412 325.998 109.916C326.01 109.748 326.01 109.4 326.01 109.4H319.878ZM332.634 110.264C333.606 111.824 335.574 113.492 337.482 114.464C337.746 114.02 338.058 113.528 338.418 113.156C336.474 112.4 334.566 110.828 333.33 108.812H331.806C330.966 110.384 329.106 112.316 326.994 113.324C327.306 113.612 327.69 114.152 327.87 114.5C329.874 113.444 331.71 111.788 332.634 110.264ZM333.966 113.204V120.032H335.454V113.204H333.966ZM329.838 113.264V114.716C329.838 116.084 329.634 117.776 327.534 119.024C327.906 119.252 328.482 119.732 328.722 120.044C331.062 118.568 331.314 116.444 331.314 114.752V113.264H329.838ZM343.134 109.484L341.202 109.46C341.31 109.94 341.358 110.516 341.358 111.08C341.358 112.112 341.238 115.268 341.238 116.876C341.238 118.928 342.51 119.792 344.478 119.792C347.214 119.792 348.918 118.184 349.686 117.032L348.594 115.712C347.73 117.02 346.47 118.16 344.49 118.16C343.554 118.16 342.834 117.764 342.834 116.552C342.834 115.064 342.93 112.376 342.978 111.08C343.002 110.6 343.062 109.988 343.134 109.484ZM351.17 110.744L351.326 112.388C352.718 112.088 355.166 111.824 356.294 111.704C355.49 112.316 354.518 113.684 354.518 115.412C354.518 118.004 356.894 119.36 359.402 119.528L359.966 117.884C357.938 117.776 356.09 117.056 356.09 115.088C356.09 113.66 357.17 112.1 358.622 111.716C359.258 111.572 360.29 111.572 360.938 111.56L360.926 110.024C360.086 110.048 358.766 110.132 357.53 110.228C355.334 110.42 353.354 110.6 352.358 110.684C352.118 110.708 351.65 110.732 351.17 110.744ZM365.138 117.464C365.138 116.948 365.702 116.624 366.638 116.624C366.974 116.624 367.31 116.66 367.622 116.708C367.634 116.876 367.634 117.02 367.634 117.128C367.634 117.932 367.358 118.268 366.59 118.268C365.75 118.268 365.138 118.052 365.138 117.464ZM369.158 109.376H367.346C367.418 109.676 367.454 110.192 367.478 110.78C367.49 111.296 367.49 112.004 367.49 112.736C367.49 113.372 367.538 114.392 367.574 115.328C367.346 115.304 367.106 115.292 366.866 115.292C364.658 115.292 363.59 116.288 363.59 117.536C363.59 119.168 364.994 119.732 366.71 119.732C368.726 119.732 369.266 118.724 369.266 117.656C369.266 117.536 369.266 117.392 369.254 117.236C370.322 117.728 371.222 118.436 371.906 119.12L372.83 117.692C372.002 116.924 370.706 116.084 369.182 115.64C369.122 114.752 369.074 113.792 369.05 113.072C370.022 113.048 371.438 112.988 372.446 112.904L372.398 111.476C371.402 111.596 369.998 111.644 369.038 111.656C369.038 111.344 369.038 111.056 369.05 110.78C369.062 110.312 369.098 109.724 369.158 109.376ZM379.706 115.916H380.93L381.254 111.812L381.314 110.024H379.322L379.382 111.812L379.706 115.916ZM380.318 119.108C380.918 119.108 381.374 118.676 381.374 118.052C381.374 117.416 380.918 116.984 380.318 116.984C379.718 116.984 379.262 117.416 379.262 118.052C379.262 118.676 379.706 119.108 380.318 119.108Z" fill="white"/>
<path d="M289.698 185.436L287.994 185.364C288.018 185.76 288.006 186.06 287.934 186.576C287.91 186.72 287.886 186.888 287.862 187.068C287.13 187.056 286.23 186.96 285.51 186.84V188.328C286.122 188.388 286.83 188.424 287.586 188.436C287.274 189.756 286.794 191.352 286.218 192.468L287.634 192.972C287.754 192.768 287.838 192.612 287.97 192.444C288.69 191.532 289.914 191.04 291.294 191.04C292.47 191.04 293.082 191.64 293.082 192.36C293.082 194.124 290.43 194.448 287.802 194.016L288.222 195.564C292.098 195.984 294.702 195.012 294.702 192.312C294.702 190.776 293.418 189.744 291.474 189.744C290.406 189.744 289.47 189.96 288.498 190.5C288.678 189.912 288.87 189.144 289.038 188.412C290.646 188.328 292.554 188.1 293.802 187.896L293.778 186.468C292.326 186.78 290.706 186.96 289.338 187.032C289.362 186.9 289.386 186.768 289.41 186.66C289.494 186.264 289.566 185.856 289.698 185.436ZM299.778 194.004C299.778 193.608 300.198 193.356 300.966 193.356C301.206 193.356 301.446 193.38 301.686 193.416C301.686 193.548 301.686 193.668 301.686 193.776C301.686 194.328 301.422 194.616 300.882 194.616C300.21 194.616 299.778 194.352 299.778 194.004ZM303.078 187.392H301.458C301.506 187.608 301.554 188.112 301.554 188.58V190.272C301.554 190.812 301.59 191.52 301.626 192.192C301.47 192.18 301.314 192.168 301.146 192.168C299.406 192.168 298.422 192.924 298.422 194.076C298.422 195.336 299.61 195.948 301.062 195.948C302.67 195.948 303.162 195.144 303.162 194.256C303.162 194.172 303.162 194.076 303.15 193.956C303.966 194.388 304.65 195 305.166 195.528L305.994 194.22C305.346 193.62 304.326 192.888 303.078 192.48C303.03 191.736 302.982 190.932 302.982 190.416C303.786 190.404 304.986 190.356 305.79 190.284L305.754 188.952C304.95 189.036 303.774 189.096 302.982 189.12V188.556C302.982 188.136 303.042 187.62 303.078 187.392ZM309.978 189.924L310.602 191.484C311.622 191.052 314.022 190.056 315.414 190.056C316.458 190.056 317.13 190.68 317.13 191.58C317.13 193.212 315.114 193.944 312.366 194.016L313.002 195.492C316.818 195.252 318.726 193.776 318.726 191.604C318.726 189.792 317.454 188.664 315.558 188.664C314.106 188.664 312.066 189.348 311.25 189.6C310.89 189.708 310.338 189.852 309.978 189.924ZM324.222 185.436L322.722 186.048C323.262 187.32 323.838 188.604 324.39 189.624C323.238 190.476 322.398 191.472 322.398 192.792C322.398 194.856 324.21 195.516 326.598 195.516C328.158 195.516 329.43 195.396 330.45 195.216L330.474 193.488C329.406 193.752 327.786 193.932 326.55 193.932C324.882 193.932 324.054 193.476 324.054 192.612C324.054 191.772 324.726 191.088 325.722 190.428C326.814 189.72 328.326 189.024 329.07 188.652C329.514 188.424 329.898 188.22 330.258 188.004L329.43 186.612C329.118 186.876 328.77 187.08 328.314 187.344C327.75 187.668 326.706 188.184 325.722 188.76C325.242 187.836 324.678 186.684 324.222 185.436ZM342.27 185.16C341.934 186.408 341.358 187.764 340.722 188.604C341.106 188.748 341.79 189.036 342.114 189.252C342.714 188.328 343.35 186.876 343.734 185.484L342.27 185.16ZM340.986 187.872C340.89 187.128 340.53 185.928 340.158 184.992L338.91 185.34C339.258 186.288 339.582 187.536 339.666 188.292L340.986 187.872ZM338.874 188.22C338.73 187.452 338.238 186.288 337.758 185.412L336.546 185.856C337.002 186.768 337.446 187.98 337.578 188.724L338.874 188.22ZM333.078 187.2C333.066 188.28 332.898 189.588 332.514 190.332L333.45 190.752C333.87 189.852 334.05 188.46 334.038 187.32L333.078 187.2ZM337.11 189.012C337.002 188.424 336.618 187.536 336.246 186.84L335.586 187.128V184.836H334.206V196.032H335.586V187.704C335.862 188.316 336.09 189 336.174 189.468L337.11 189.012ZM342.126 192.372C341.862 192.048 341.466 191.676 341.01 191.304C341.298 190.692 341.55 190.032 341.742 189.372L340.482 189.096C340.35 189.576 340.194 190.044 340.002 190.488C339.642 190.224 339.282 189.96 338.958 189.732L338.25 190.692C338.622 190.968 339.03 191.28 339.438 191.604C339.066 192.216 338.646 192.756 338.19 193.176C338.49 193.356 339.006 193.764 339.234 193.98C339.642 193.56 340.038 193.044 340.398 192.456C340.782 192.816 341.118 193.176 341.346 193.476L342.126 192.372ZM342.138 193.98H338.178V189.384H336.81V195.924H338.178V195.276H342.138V195.9H343.542V189.36H342.138V193.98ZM346.83 185.916L346.89 187.464C347.202 187.416 347.622 187.38 347.862 187.368C348.414 187.332 349.446 187.296 349.926 187.272C349.65 187.836 349.302 188.652 348.966 189.444C346.554 189.552 344.862 190.968 344.862 192.828C344.862 194.04 345.654 194.772 346.71 194.772C347.526 194.772 348.102 194.436 348.582 193.716C349.002 193.056 349.506 191.856 349.938 190.836C350.97 190.98 351.93 191.34 352.782 191.808C352.386 192.9 351.546 194.04 349.734 194.82L351.006 195.864C352.614 195.024 353.526 193.968 354.054 192.612C354.426 192.888 354.774 193.164 355.086 193.452L355.782 191.784C355.434 191.544 355.002 191.268 354.498 190.98C354.618 190.308 354.678 189.564 354.726 188.76L353.154 188.58C353.19 188.94 353.19 189.42 353.154 189.888C353.142 190.02 353.13 190.152 353.118 190.296C352.338 189.96 351.45 189.672 350.514 189.528C350.946 188.508 351.402 187.464 351.714 186.948C351.81 186.78 351.954 186.624 352.122 186.444L351.162 185.7C350.958 185.784 350.646 185.856 350.346 185.868C349.782 185.916 348.51 185.976 347.826 185.976C347.562 185.976 347.154 185.952 346.83 185.916ZM346.266 192.6C346.266 191.844 347.022 191.028 348.366 190.824C348.03 191.58 347.706 192.336 347.394 192.78C347.178 193.08 347.01 193.2 346.77 193.2C346.494 193.2 346.266 192.996 346.266 192.6ZM361.722 185.604L359.934 185.424C359.958 186.18 359.85 187.056 359.682 187.956C359.07 188.016 358.506 188.052 358.134 188.064C357.69 188.076 357.294 188.1 356.85 188.064L356.994 189.696C357.366 189.636 357.99 189.552 358.338 189.492C358.554 189.468 358.938 189.42 359.37 189.372C358.926 191.016 358.098 193.44 356.934 195.012L358.494 195.636C359.598 193.872 360.486 191.028 360.942 189.204C361.29 189.18 361.59 189.156 361.782 189.156C362.526 189.156 362.946 189.288 362.946 190.248C362.946 191.436 362.778 192.888 362.454 193.572C362.262 193.968 361.962 194.088 361.554 194.088C361.242 194.088 360.546 193.968 360.09 193.836L360.342 195.42C360.75 195.504 361.326 195.588 361.782 195.588C362.694 195.588 363.354 195.324 363.75 194.484C364.266 193.44 364.434 191.496 364.434 190.08C364.434 188.352 363.534 187.788 362.262 187.788C362.01 187.788 361.662 187.812 361.254 187.836C361.338 187.404 361.434 186.96 361.506 186.6C361.566 186.3 361.65 185.916 361.722 185.604ZM367.062 184.608L366.102 184.992C366.438 185.448 366.822 186.156 367.074 186.648L368.022 186.24C367.818 185.82 367.374 185.064 367.062 184.608ZM365.634 185.148L364.686 185.544C364.962 185.928 365.262 186.504 365.502 186.96L364.422 187.428C365.274 188.484 366.126 190.596 366.438 191.928L367.962 191.232C367.626 190.164 366.726 188.16 366.006 187.044L366.594 186.792C366.366 186.348 365.934 185.592 365.634 185.148ZM369 194.168C369 193.898 369.09 193.68 369.27 193.512C369.453 193.344 369.682 193.26 369.955 193.26C370.232 193.26 370.461 193.344 370.641 193.512C370.824 193.68 370.916 193.898 370.916 194.168C370.916 194.434 370.826 194.65 370.646 194.818C370.467 194.982 370.236 195.064 369.955 195.064C369.678 195.064 369.449 194.982 369.27 194.818C369.09 194.65 369 194.434 369 194.168ZM372.492 194.168C372.492 193.898 372.582 193.68 372.762 193.512C372.945 193.344 373.174 193.26 373.447 193.26C373.725 193.26 373.953 193.344 374.133 193.512C374.316 193.68 374.408 193.898 374.408 194.168C374.408 194.434 374.318 194.65 374.139 194.818C373.959 194.982 373.729 195.064 373.447 195.064C373.17 195.064 372.941 194.982 372.762 194.818C372.582 194.65 372.492 194.434 372.492 194.168ZM375.984 194.168C375.984 193.898 376.074 193.68 376.254 193.512C376.438 193.344 376.666 193.26 376.939 193.26C377.217 193.26 377.445 193.344 377.625 193.512C377.809 193.68 377.9 193.898 377.9 194.168C377.9 194.434 377.811 194.65 377.631 194.818C377.451 194.982 377.221 195.064 376.939 195.064C376.662 195.064 376.434 194.982 376.254 194.818C376.074 194.65 375.984 194.434 375.984 194.168Z" fill="white"/>
<defs>
<filter id="filter0_d" x="0" y="45" width="143" height="35" filterUnits="userSpaceOnUse" color-interpolation-filters="sRGB">
<feFlood flood-opacity="0" result="BackgroundImageFix"/>
<feColorMatrix in="SourceAlpha" type="matrix" values="0 0 0 0 0 0 0 0 0 0 0 0 0 0 0 0 0 0 127 0"/>
<feOffset dy="2"/>
<feGaussianBlur stdDeviation="0.5"/>
<feColorMatrix type="matrix" values="0 0 0 0 0 0 0 0 0 0 0 0 0 0 0 0 0 0 0.25 0"/>
<feBlend mode="normal" in2="BackgroundImageFix" result="effect1_dropShadow"/>
<feBlend mode="normal" in="SourceGraphic" in2="effect1_dropShadow" result="shape"/>
</filter>
<filter id="filter1_d" x="18" y="207" width="143" height="35" filterUnits="userSpaceOnUse" color-interpolation-filters="sRGB">
<feFlood flood-opacity="0" result="BackgroundImageFix"/>
<feColorMatrix in="SourceAlpha" type="matrix" values="0 0 0 0 0 0 0 0 0 0 0 0 0 0 0 0 0 0 127 0"/>
<feOffset dy="2"/>
<feGaussianBlur stdDeviation="0.5"/>
<feColorMatrix type="matrix" values="0 0 0 0 0 0 0 0 0 0 0 0 0 0 0 0 0 0 0.25 0"/>
<feBlend mode="normal" in2="BackgroundImageFix" result="effect1_dropShadow"/>
<feBlend mode="normal" in="SourceGraphic" in2="effect1_dropShadow" result="shape"/>
</filter>
<filter id="filter2_d" x="265" y="98" width="143" height="35" filterUnits="userSpaceOnUse" color-interpolation-filters="sRGB">
<feFlood flood-opacity="0" result="BackgroundImageFix"/>
<feColorMatrix in="SourceAlpha" type="matrix" values="0 0 0 0 0 0 0 0 0 0 0 0 0 0 0 0 0 0 127 0"/>
<feOffset dy="2"/>
<feGaussianBlur stdDeviation="0.5"/>
<feColorMatrix type="matrix" values="0 0 0 0 0 0 0 0 0 0 0 0 0 0 0 0 0 0 0.25 0"/>
<feBlend mode="normal" in2="BackgroundImageFix" result="effect1_dropShadow"/>
<feBlend mode="normal" in="SourceGraphic" in2="effect1_dropShadow" result="shape"/>
</filter>
<filter id="filter3_d" x="53" y="130" width="143" height="35" filterUnits="userSpaceOnUse" color-interpolation-filters="sRGB">
<feFlood flood-opacity="0" result="BackgroundImageFix"/>
<feColorMatrix in="SourceAlpha" type="matrix" values="0 0 0 0 0 0 0 0 0 0 0 0 0 0 0 0 0 0 127 0"/>
<feOffset dy="2"/>
<feGaussianBlur stdDeviation="0.5"/>
<feColorMatrix type="matrix" values="0 0 0 0 0 0 0 0 0 0 0 0 0 0 0 0 0 0 0.25 0"/>
<feBlend mode="normal" in2="BackgroundImageFix" result="effect1_dropShadow"/>
<feBlend mode="normal" in="SourceGraphic" in2="effect1_dropShadow" result="shape"/>
</filter>
<filter id="filter4_d" x="258" y="175" width="143" height="35" filterUnits="userSpaceOnUse" color-interpolation-filters="sRGB">
<feFlood flood-opacity="0" result="BackgroundImageFix"/>
<feColorMatrix in="SourceAlpha" type="matrix" values="0 0 0 0 0 0 0 0 0 0 0 0 0 0 0 0 0 0 127 0"/>
<feOffset dy="2"/>
<feGaussianBlur stdDeviation="0.5"/>
<feColorMatrix type="matrix" values="0 0 0 0 0 0 0 0 0 0 0 0 0 0 0 0 0 0 0.25 0"/>
<feBlend mode="normal" in2="BackgroundImageFix" result="effect1_dropShadow"/>
<feBlend mode="normal" in="SourceGraphic" in2="effect1_dropShadow" result="shape"/>
</filter>
</defs>
</svg>
